<svg preserveAspectRatio="none" overflow="visible" style="display: block;" width="14.9925" height="14.9925" viewBox="0 0 14.9925 14.9925" fill="none" xmlns="http://www.w3.org/2000/svg">
<g id="Icon">
<path id="Vector" d="M7.49625 9.37031C8.53127 9.37031 9.37031 8.53127 9.37031 7.49625C9.37031 6.46123 8.53127 5.62219 7.49625 5.62219C6.46123 5.62219 5.62219 6.46123 5.62219 7.49625C5.62219 8.53127 6.46123 9.37031 7.49625 9.37031Z" stroke="#3E655C" stroke-width="1.18691" stroke-linecap="round" stroke-linejoin="round"/>
<path id="Vector_2" d="M11.8691 8.43328V6.55922L13.1184 5.62219L11.8691 3.49825L10.3698 4.12294C9.8976 3.6886 9.34616 3.34926 8.74562 3.12344L8.55822 1.56172H6.05947L5.87206 3.12344C5.27639 3.33051 4.7253 3.64844 4.24788 4.06047L2.74863 3.43578L1.56172 5.62219L3.12344 6.55922V8.43328L1.56172 9.37031L2.81109 11.5567L4.24788 10.932C4.7253 11.3441 5.27639 11.662 5.87206 11.8691L6.05947 13.4308H8.55822L8.74562 11.8691C9.34129 11.662 9.89239 11.3441 10.3698 10.932L11.8691 11.5567L13.1184 9.37031L11.8691 8.43328Z" stroke="#3E655C" stroke-width="1.18691" stroke-linecap="round" stroke-linejoin="round"/>
</g>
</svg>
