<svg preserveAspectRatio="none" overflow="visible" style="display: block;" width="18.9982" height="18.9982" viewBox="0 0 18.9982 18.9982" fill="none" xmlns="http://www.w3.org/2000/svg">
<g id="Icon">
<path id="Vector" d="M9.4991 11.8739C10.8107 11.8739 11.8739 10.8107 11.8739 9.4991C11.8739 8.18755 10.8107 7.12433 9.4991 7.12433C8.18755 7.12433 7.12433 8.18755 7.12433 9.4991C7.12433 10.8107 8.18755 11.8739 9.4991 11.8739Z" stroke="#2F5048" stroke-width="1.50402" stroke-linecap="round" stroke-linejoin="round"/>
<path id="Vector_2" d="M15.0402 10.6865V8.31171L16.6234 7.12433L15.0402 4.43291L13.1404 5.22451C12.542 4.67412 11.8433 4.24411 11.0823 3.95796L10.8448 1.97898H7.67844L7.44096 3.95796C6.68614 4.22035 5.98781 4.62324 5.38282 5.14535L3.483 4.35375L1.97898 7.12433L3.95796 8.31171V10.6865L1.97898 11.8739L3.56216 14.6444L5.38282 13.8529C5.98781 14.375 6.68614 14.7778 7.44096 15.0402L7.67844 17.0192H10.8448L11.0823 15.0402C11.8371 14.7778 12.5354 14.375 13.1404 13.8529L15.0402 14.6444L16.6234 11.8739L15.0402 10.6865Z" stroke="#2F5048" stroke-width="1.50402" stroke-linecap="round" stroke-linejoin="round"/>
</g>
</svg>
