<svg preserveAspectRatio="none" overflow="visible" style="display: block;" width="402.379" height="594.821" viewBox="0 0 402.379 594.821" fill="none" xmlns="http://www.w3.org/2000/svg">
<g id="Icon">
<path id="Vector" opacity="0.2" d="M85.6345 565.663C116.587 472.806 176.428 472.806 183.65 400.585C190.872 328.363 144.444 302.569 193.967 245.823C243.491 189.078 317.776 199.395 330.157 103.443" stroke="#F7DFA9" stroke-width="23.73" stroke-linecap="round"/>
<path id="Vector_2" d="M85.6345 565.663C116.587 472.806 176.428 472.806 183.65 400.585C190.872 328.363 144.444 302.569 193.967 245.823C243.491 189.078 317.776 199.395 330.157 103.443" stroke="#FFFDF4" stroke-width="15.4761" stroke-linecap="round"/>
<path id="Vector_3" d="M85.6345 565.663C116.587 472.806 176.428 472.806 183.65 400.585C190.872 328.363 144.444 302.569 193.967 245.823C243.491 189.078 317.776 199.395 330.157 103.443" stroke="#FFE89A" stroke-width="11.3492" stroke-linecap="round"/>
<path id="Vector_4" d="M85.6345 565.663C116.587 472.806 176.428 472.806 183.65 400.585C190.872 328.363 144.444 302.569 193.967 245.823C243.491 189.078 317.776 199.395 330.157 103.443" stroke="#FFE36B" stroke-width="6.19045" stroke-linecap="round"/>
<path id="Vector_5" d="M124.841 517.171C126.55 517.171 127.936 515.786 127.936 514.076C127.936 512.367 126.55 510.981 124.841 510.981C123.131 510.981 121.745 512.367 121.745 514.076C121.745 515.786 123.131 517.171 124.841 517.171Z" fill="#FFFDF4"/>
<path id="Vector_6" d="M188.809 370.148C190.233 370.148 191.388 368.993 191.388 367.569C191.388 366.144 190.233 364.99 188.809 364.99C187.384 364.99 186.229 366.144 186.229 367.569C186.229 368.993 187.384 370.148 188.809 370.148Z" fill="#FFFDF4"/>
<path id="Vector_7" d="M250.713 248.919C252.423 248.919 253.808 247.533 253.808 245.823C253.808 244.114 252.423 242.728 250.713 242.728C249.004 242.728 247.618 244.114 247.618 245.823C247.618 247.533 249.004 248.919 250.713 248.919Z" fill="#FFFDF4"/>
</g>
</svg>
